HIERARCHY
ROOT Hips
{
    OFFSET 14.072051048278809 94.92171096801758 -18.393817901611328
    CHANNELS 6 Xposition Yposition Zposition Zrotation Xrotation Yrotation
    JOINT RightUpLeg
    {
        OFFSET -14.072051048278809 0.0 0.0
        CHANNELS 3 Zrotation Xrotation Yrotation
        JOINT RightLeg
        {
            OFFSET 0.0 -48.937164306640625 0.0
            CHANNELS 3 Zrotation Xrotation Yrotation
            JOINT RightFoot
            {
                OFFSET 0.0 -45.98454666137695 0.0
                CHANNELS 3 Zrotation Xrotation Yrotation
                End Site
                {
                    OFFSET 0.0 0.0 18.393817901611328
                }
            }
        }
    }
    JOINT LeftUpLeg
    {
        OFFSET 14.072051048278809 0.0 0.0
        CHANNELS 3 Zrotation Xrotation Yrotation
        JOINT LeftLeg
        {
            OFFSET 0.0 -48.937164306640625 0.0
            CHANNELS 3 Zrotation Xrotation Yrotation
            JOINT LeftFoot
            {
                OFFSET 0.0 -45.98454666137695 0.0
                CHANNELS 3 Zrotation Xrotation Yrotation
                End Site
                {
                    OFFSET 0.0 0.0 18.393817901611328
                }
            }
        }
    }
    JOINT Spine
    {
        OFFSET 0.0 25.87814712524414 0.0
        CHANNELS 3 Zrotation Xrotation Yrotation
        JOINT Spine3
        {
            OFFSET 0.0 25.640682220458984 0.0
            CHANNELS 3 Zrotation Xrotation Yrotation
            JOINT Neck
            {
                OFFSET 0.0 11.641457557678223 0.0
                CHANNELS 3 Zrotation Xrotation Yrotation
                End Site
                {
                    OFFSET 0.0 4.656582832336426 0.0
                }
            }
            JOINT LeftArm
            {
                OFFSET 14.515852928161621 0.0 0.0
                CHANNELS 3 Zrotation Xrotation Yrotation
                JOINT LeftForeArm
                {
                    OFFSET 28.941755294799805 0.0 0.0
                    CHANNELS 3 Zrotation Xrotation Yrotation
                    JOINT LeftHand
                    {
                        OFFSET 24.621990203857422 0.0 0.0
                        CHANNELS 3 Zrotation Xrotation Yrotation
                        End Site
                        {
                            OFFSET 9.848794937133789 0.0 0.0
                        }
                    }
                }
            }
            JOINT RightArm
            {
                OFFSET -14.515852928161621 0.0 0.0
                CHANNELS 3 Zrotation Xrotation Yrotation
                JOINT RightForeArm
                {
                    OFFSET -28.941755294799805 0.0 0.0
                    CHANNELS 3 Zrotation Xrotation Yrotation
                    JOINT RightHand
                    {
                        OFFSET -24.621990203857422 0.0 0.0
                        CHANNELS 3 Zrotation Xrotation Yrotation
                        End Site
                        {
                            OFFSET -9.848794937133789 0.0 0.0
                        }
                    }
                }
            }
        }
    }
}
MOTION
Frames: 11
Frame Time: 0.03333333333333333
1.997595973080024e-05 95.23545837402344 -0.0007813787087798119 -6.938647288893565 -15.445337743491114 -17.411720862963698 4.616811610684422 22.989699164821985 -3.1657737563379333 -6.159297650915525 8.497374712228716 -0.1847461662392347 3.975693351829397e-16 -2.758691436281349e-33 -7.951386703658794e-16 3.898363862076415 24.040837578525593 -3.0095826389406275 -2.2598907567821485 6.534710065767616 -0.5085216504106287 1.9878466759146985e-16 -1.5654292572828246e-15 4.050237602176197e-15 4.28337851264739 33.74379682078287 -4.313415020131535 3.5946021403207486e-07 -6.677286284580972e-07 0.2568990147737909 0.21214432638739222 0.05950085783655142 -170.0729596927054 112.13610133185705 -31.93604110255993 -173.30229193635816 -4.012617479166483e-06 6.518388508105689e-06 27.423714768149427 -3.1805546814635176e-15 3.1805546814635176e-15 -6.361109362927035e-15 -119.84655414051852 -23.25115913283784 165.01939818419845 3.4347877817321598e-06 5.437923603306724e-07 -32.804723678057556 -7.454425034680117e-15 -3.1805546814635168e-15 -2.0690185772110117e-31
4.209778126096353e-05 95.23553466796875 -0.0007732512895017862 -7.09252666938923 -15.02033167497184 -18.15125737811097 4.499426896358653 22.358010580619936 -3.0567851984472343 -5.955325592046 8.349634802179287 -0.20687058054725882 3.1724951517235514e-32 3.1805546814635168e-15 -1.1430118386509513e-15 3.5530254980720763 23.631137890609637 -2.8405623217245375 -1.6622547728902475 6.427354916326863 -0.5393348310925472 7.951386703658791e-16 -1.5902773407317582e-15 -7.205944200190779e-16 3.553726188602136 33.09705239678344 -3.8640018996040317 2.7241873079563793e-09 -4.545590685952265e-07 -0.14502557592025797 1.6626519339288268 1.1960944386593542 -170.18951499607743 111.58847881809488 -31.754760163638053 -174.3731960643257 2.815870914810364e-07 -3.156321478617827e-06 27.732510439767143 9.541664044390549e-15 0.0 0.0 -121.32926724893618 -22.08392683906488 164.66109235904662 -1.2079815572668967e-06 1.8512735542531059e-06 -36.61829244320671 -2.1866313435061676e-15 0.0 0.0
5.448964657261968e-06 95.23555755615234 -0.0008104103617370129 -7.346035036413894 -14.701297859554838 -18.920705789484302 4.4115431777859175 21.898763712852883 -2.9646811121761294 -5.982060543195664 8.395697379143675 -0.19604023310329735 -3.9756933518293955e-16 1.5902773407317582e-15 -1.3417965062424209e-15 3.21395423120441 23.359230209225473 -2.6745871807949837 -1.063204939553727 6.289682330615697 -0.5613205697477625 0.0 0.0 -2.0872390097104326e-15 2.8138778784334844 32.11384247271459 -3.3659838310493426 6.583649720887662e-08 7.873224574534382e-08 -0.21173135589096745 3.5523232628525836 2.8293267291684217 -171.61943276954307 110.82174303229063 -32.23657796924791 -175.3109280090632 2.2607531934571882e-08 2.913508914670561e-06 28.224142264391105 0.0 0.0 0.0 -122.4937859703414 -17.96515262814355 164.03994396616926 -4.437737360682539e-06 -5.84494602364542e-06 -42.54670620746762 -1.1927080055488186e-15 -3.310429723537619e-32 3.1805546814635164e-15
5.523920845007524e-05 95.23552703857422 -0.0008073626086115837 -7.4386185274894805 -14.619686894649279 -19.49892316989928 3.956456976190173 21.785901333191177 -2.8680903204124655 -5.522087991283713 8.284710756935661 -0.23153366756978108 4.525978137649089e-34 -4.9696166897867443e-17 1.0436195048552163e-15 2.67108559837962 23.259286813737297 -2.541770333373875 -0.34771319808507906 6.364938224947893 -0.617160063732102 -7.951386703658792e-16 4.9696166897867425e-17 4.273870353216601e-15 2.2240047254278745 31.58527687166992 -3.13029549660316 -2.7810439505316925e-07 -9.930852434519334e-07 -0.05833781390429413 4.443586758382723 3.655493647116386 -171.99687889572252 110.39928259943181 -32.116604533294655 -175.87246126621062 -6.262770463526912e-08 2.4356810518445768e-06 28.666058865563297 -3.180554681463516e-15 -6.3611093629270335e-15 1.2722218725854067e-14 -122.75622586291632 -13.552000618152116 162.765351326087 -6.2253518511048556e-06 -2.8393953988334316e-06 -48.18837664791173 -7.951386703658792e-16 -3.1805546814635168e-15 -2.2069531490250793e-32
3.557320451363921e-05 95.23554229736328 -0.0008195142145268619 -7.4624833151666 -14.511560977312788 -20.181129056764952 3.4499064922642777 21.774775950996148 -2.7657198194204993 -5.163468173715928 8.40102113305111 -0.2509421633127049 3.9756933518293955e-16 -1.5902773407317582e-15 -6.21202086223343e-16 2.5812812839765167 23.308663532664152 -2.6064884495398983 -0.9107716214328916 6.456772806361675 -0.5774058885096819 -1.9878466759146977e-16 1.5902773407317584e-15 -1.0684675883041502e-15 1.3205765143574117 30.60882587053285 -2.702317982370035 1.5472329663815099e-07 5.012146902386813e-07 0.09159952512533437 6.238716450888485 4.360633312239669 -172.50139128525228 110.78161836437761 -32.75504365333687 -176.47467162213485 2.9424709333211124e-06 5.11767085191381e-09 30.181645856412054 -3.1805546814635168e-15 6.361109362927035e-15 -6.361109362927035e-15 -123.20994299711028 -8.993308105802976 161.31276241738757 -4.829197937873582e-06 -1.1790117993607924e-06 -59.58747396325553 0.0 -3.1805546814635176e-15 0.0
1.8552531400928274e-05 95.2357406616211 -0.0008643255569040775 -7.488336297877846 -14.364695326144341 -20.950265614156336 2.888612386674587 21.618132089640767 -2.6228394122034953 -4.69309952695763 8.313322570398544 -0.2729121095381559 5.963540027744093e-16 -1.5902773407317582e-15 1.5654292572828244e-15 2.1451790020887596 23.22897983316648 -2.5163568754704913 -1.1744490919457617 6.597761256302658 -0.5380727619000533 0.0 0.0 7.702905869169454e-16 0.29506499787251145 30.040333149976597 -2.2566269333649864 3.9326328462373756e-08 -6.088884302993457e-07 -0.020677447986261262 8.090024367420728 5.451253978614623 -173.207687939888 110.92801284581653 -33.147340691019835 -177.00496138509104 -5.408191242451156e-06 4.852715646579624e-06 30.963042543131984 0.0 0.0 -6.3611093629270335e-15 -122.53466794079992 -2.417235912114511 159.83014226350463 -1.322208573220508e-07 -3.6035600721557695e-06 -72.6534327703395 -1.7655625192200634e-31 3.180554681463516e-15 6.361109362927032e-15
7.396283763227984e-05 95.23591613769531 -0.0008527706377208233 -7.51273035607627 -14.301025006987315 -21.254410176655693 2.9396939354944966 21.28301557538729 -2.592316825229964 -5.2148422089041695 8.411124328047055 -0.20494821088481824 -5.963540027744092e-16 -1.6399735076296255e-15 3.4290355159528535e-15 2.012087348746711 22.848610645145552 -2.4142322807202907 -1.3198311149050843 7.095973046760215 -0.5440760392647068 3.975693351829396e-16 -2.4848083448933725e-17 -7.454425034680117e-16 -0.44016744767232463 29.56456307682509 -1.8459028168120364 -8.287350729764648e-09 6.57358117139381e-07 0.013874835078255899 9.934636854018667 6.252243005473964 -175.0275253292401 111.06347144637391 -34.01098117999563 -177.38293711607258 8.943594403364718e-07 -1.5913459631094598e-06 31.5038478427675 0.0 0.0 -6.361109362927033e-15 -122.16680890831385 3.8560556843921043 157.5966642768387 -4.06319969603653e-06 4.2133615491003416e-06 -86.28750262964782 3.1805546814635168e-15 -3.1805546814635168e-15 6.3611093629270335e-15
0.0001664843293838203 95.23616027832031 -0.0008699556929059327 -7.37639171361492 -14.050168314423477 -21.641045422450073 2.641683432264051 20.824949264537548 -2.466797010519024 -5.452265427572082 8.321233859765865 -0.1442427137252051 0.0 0.0 -2.683593012484842e-15 1.4783353542137307 22.481034865989084 -2.209838747107343 -0.904753930625172 7.485009679065753 -0.5775819106865339 1.987846675914698e-16 -1.7672867013677393e-33 -1.0187714214062827e-15 -1.0982154340767851 29.02849845103542 -1.5430418818647407 3.6817407012260885e-07 -8.005939570125703e-07 -0.4001478016753948 11.072402690920168 6.795847931772329 -175.88660775434968 111.59167167040025 -35.00671184254173 -177.46081947364576 2.7492913453900095e-06 -3.3668616651552235e-06 31.787109645022074 6.361109362927035e-15 -6.361109362927035e-15 6.361109362927035e-15 -120.74846633683116 9.916901336005003 154.46699767858752 1.6052916129186438e-06 3.4294323997735025e-06 -99.13523251390207 0.0 0.0 6.3611093629270335e-15
0.00020671714446507394 95.23619079589844 -0.0008762142970226705 -7.300220839045253 -13.8339872353593 -21.870767073917698 2.440382460859712 20.44572125954244 -2.3817985524933167 -6.00630874204589 8.049672463787811 -0.04867128045493058 0.0 0.0 8.448348372637468e-16 1.111541808040575 22.252958066312765 -2.080215440705686 -0.7160650432888825 7.589578009353294 -0.5769297768761568 -1.9878466759146985e-16 -2.715586882589453e-33 1.565429257282825e-15 -1.3436469300701501 28.348140007103268 -1.4324704492853366 6.570377992725002e-08 3.681909171313478e-08 -0.7215032783729921 12.3956256098812 7.603984010107006 -176.17399700066443 111.64520450515892 -35.06412061218318 -177.67251554864913 3.2170905450738136e-07 2.27382358504755e-06 31.50274218991152 6.3611093629270335e-15 -3.531125038440127e-31 -6.3611093629270335e-15 -120.43686079954894 13.485022142997021 151.98747071679026 1.8350871926611956e-07 -3.822377078581879e-06 -104.5434882611062 -6.3611093629270335e-15 1.5902773407317592e-15 -1.2722218725854067e-14
0.00024328805739060044 95.23626708984375 -0.0008907431038096547 -7.334764420570016 -13.593057654850009 -22.407471939929685 1.9336293192910632 20.014084245958774 -2.1940811049275064 -5.6786026805819345 8.295254543105697 -0.045417628145098365 3.975693351829397e-16 9.939233379573492e-17 -1.6896696745274936e-15 0.5821206495739982 22.062727424176103 -1.90266432615221 -0.08161995506391885 7.862280646577346 -0.6316221899967923 -5.963540027744096e-16 1.2931366107568824e-34 -2.484808344893373e-17 -1.7812263920628517 27.818035285182503 -1.2519693051084495 2.3586578967622696e-07 -5.784468218447188e-07 -1.1972886089272836 13.109112814027604 8.334144863324083 -176.80082539738356 111.95207361725402 -34.71725582980486 -177.8752835129471 1.6947703838847692e-06 6.150305315379612e-06 31.362838753047708 0.0 0.0 0.0 -119.9840027723248 15.915134592171132 149.62950654277228 -5.410531240058974e-06 -1.87977966383242e-06 -108.25372545009597 -6.361109362927032e-15 6.361109362927032e-15 3.531125038440127e-31
0.0002679272729437798 95.23629760742188 -0.0008915314683690667 -7.2098909726202 -13.317336552373598 -22.83660618266747 1.6154578961273693 19.5067439997758 -2.1066212492253573 -5.589027445662684 8.201189820939625 -0.046868220930866254 3.975693351829396e-16 -9.93923337957349e-17 4.472655020808071e-16 0.3145287483557205 21.569471990354142 -1.843681550090755 -0.31351036000871335 8.314104841576887 -0.6295148300276383 -3.975693351829396e-16 4.741500906108569e-33 -1.3666445896913548e-15 -2.308135309008574 27.43119833896551 -1.0931059239081526 -1.907102223302362e-07 8.173451666061389e-07 -1.3780327097340963 14.188675483278393 8.666380494711339 -177.59536526737352 112.3978670051777 -34.173644954482356 -177.98984097507218 5.180570104564549e-08 -3.2749467281107473e-06 31.04936406073366 -6.361109362927032e-15 6.361109362927032e-15 3.531125038440127e-31 -119.54178528221424 18.428878777904785 147.36473969569343 -3.9298954598480545e-06 2.42170095756077e-06 -109.86437276108974 6.3611093629270335e-15 0.0 0.0
